<svg width="14" height="13" viewBox="0 0 14 13" fill="none" xmlns="http://www.w3.org/2000/svg">
<path d="M13.0317 4.44249L11.8651 3.85916C11.6492 3.75416 11.3809 3.83582 11.2759 4.05166C11.1651 4.27332 11.2526 4.53582 11.4684 4.64082L12.3959 5.10166V7.89582L10.2084 7.90166V1.91666C10.2084 0.74999 9.42675 0.166656 8.45841 0.166656H3.79175C2.82341 0.166656 2.04175 0.74999 2.04175 1.91666V11.3958H1.16675C0.927581 11.3958 0.729248 11.5942 0.729248 11.8333C0.729248 12.0725 0.927581 12.2708 1.16675 12.2708H11.0834C11.3226 12.2708 11.5209 12.0725 11.5209 11.8333C11.5209 11.5942 11.3226 11.3958 11.0834 11.3958H10.2084V8.77666L12.8334 8.77082C13.0784 8.77082 13.2709 8.57249 13.2709 8.33332V4.83332C13.2709 4.66999 13.1776 4.51832 13.0317 4.44249ZM3.50008 3.01916C3.50008 2.20832 3.99591 1.91666 4.60258 1.91666H7.65341C8.25425 1.91666 8.75008 2.20832 8.75008 3.01916V3.73666C8.75008 4.54166 8.25425 4.83332 7.64758 4.83332H4.60258C3.99591 4.83332 3.50008 4.54166 3.50008 3.73082V3.01916ZM3.79175 6.14582H5.54175C5.78091 6.14582 5.97925 6.34416 5.97925 6.58332C5.97925 6.82249 5.78091 7.02082 5.54175 7.02082H3.79175C3.55258 7.02082 3.35425 6.82249 3.35425 6.58332C3.35425 6.34416 3.55258 6.14582 3.79175 6.14582Z" fill="#90A3BF"/>
</svg>
